PathFileType	4	(X/Y/Z)	/Users/niels/Desktop/University/Third Semester/Perception and Action/Exam/Gymnastics Motion Tracking/Code for Gym Tracking/Analyzed Data/Webcam_Backflip/id1_4_trajectory_Sports2D/id1_4_trajectory_Sports2D_px_person00.trc
DataRate	CameraRate	NumFrames	NumMarkers	Units	OrigDataRate	OrigDataStartFrame	OrigNumFrames
29.71698113207547	29.71698113207547	11	22	m	29.71698113207547	53	106
Frame#	Time	Hip			RHip			RKnee			RAnkle			RBigToe			RSmallToe			RHeel			LHip			LKnee			LAnkle			LBigToe			LSmallToe			LHeel			Neck			Head			Nose			RShoulder			RElbow			RWrist			LShoulder			LElbow			LWrist		
		X1	Y1	Z1	X2	Y2	Z2	X3	Y3	Z3	X4	Y4	Z4	X5	Y5	Z5	X6	Y6	Z6	X7	Y7	Z7	X8	Y8	Z8	X9	Y9	Z9	X10	Y10	Z10	X11	Y11	Z11	X12	Y12	Z12	X13	Y13	Z13	X14	Y14	Z14	X15	Y15	Z15	X16	Y16	Z16	X17	Y17	Z17	X18	Y18	Z18	X19	Y19	Z19	X20	Y20	Z20	X21	Y21	Z21	X22	Y22	Z22
53	1.7834920634920632	0.5407575056629181	-0.8510918276779074	0.0	0.530942918859526	-0.8572951136058351	0.0	0.5482372451614267	-0.7494066447786022	0.0	0.6647021281058054	-0.7210630176716691	0.0	0.6740033702769974	-0.6535217850375374	0.0	0.6768783759453688	-0.6642174758425293	0.0	0.6818196928995736	-0.7274456682465793	0.0	0.553449798668664	-0.8449334518187067	0.0	0.554820577991343	-0.7480865507043754	0.0	0.6678145538077166	-0.7165002340686554	0.0	0.6777142422681679	-0.6507597653359813	0.0	0.6771989984031759	-0.6540464522176844	0.0	0.6907857429868949	-0.7197744524676345	0.0	0.4328732602330552	-0.7782335578905673	0.0	0.43754143171096316	-0.7082151701739203	0.0	0.45835636190061957	-0.7540779067892549	0.0	0.40868149772877416	-0.8015849041590635	0.0	0.42983886251517656	-0.8713086828268723	0.0	0.49224890149848266	-0.8536911141358817	0.0	0.4648791289015097	-0.7765093984318777	0.0	0.5213318898120674	-0.7956485474054155	0.0	0.5589969254683684	-0.7945696375615123	0.0
54	1.817142857142857	0.5422050515290147	-0.8394674765450668	0.0	0.5312207167341612	-0.8461159369199021	0.0	0.5559078900295913	-0.7404095684006883	0.0	0.6745438560027929	-0.730204023370357	0.0	0.6928700540617063	-0.6670194582857553	0.0	0.6929409565119687	-0.6793135474373889	0.0	0.6909033180783386	-0.7392273561839053	0.0	0.5551513727413224	-0.8341225322860664	0.0	0.5640971817850579	-0.7359721772319988	0.0	0.6806209321730244	-0.7212002788098767	0.0	0.6991642179540082	-0.6601259811755601	0.0	0.698212343517009	-0.662965465966308	0.0	0.7021699339599735	-0.7279278461025123	0.0	0.44112856186672705	-0.7618707313884113	0.0	0.4468958691832836	-0.6907204068837947	0.0	0.4670541139980364	-0.7380984991345972	0.0	0.41437066762797353	-0.7839738257182167	0.0	0.42845328702208896	-0.856668633629611	0.0	0.49221971494839656	-0.8509228874687371	0.0	0.4720887631255787	-0.7602528177341731	0.0	0.52114227354865	-0.7896464833901816	0.0	0.5503799160988211	-0.7988735835415384	0.0
55	1.8507936507936507	0.5441044543337697	-0.8276258463053515	0.0	0.5312953225971397	-0.8342350925838363	0.0	0.5615854941749204	-0.7306055844512075	0.0	0.6811440784771401	-0.7377177373980239	0.0	0.7086411250130383	-0.6796999318972266	0.0	0.705787498023015	-0.6937133051134464	0.0	0.6956572864789983	-0.7493414957490945	0.0	0.5583034444811547	-0.8232760150570747	0.0	0.5745651410837772	-0.722603729851107	0.0	0.6895824667414233	-0.7243121204713365	0.0	0.7167330500023119	-0.6688081612853478	0.0	0.7154429887846957	-0.6710469708937227	0.0	0.7095369417574874	-0.7347278492145505	0.0	0.45087454160522755	-0.7442116536744284	0.0	0.4577216891527683	-0.671751774595288	0.0	0.47691701543281356	-0.7204495851056937	0.0	0.42097776063866654	-0.7650480260667113	0.0	0.42694738486800127	-0.8397847732842401	0.0	0.4905831033580205	-0.8463462949898674	0.0	0.48161571790784635	-0.742746076849026	0.0	0.5231950812418258	-0.7820425052304613	0.0	0.5461728211862328	-0.7998246327173675	0.0
56	1.8844444444444441	0.5463884936179684	-0.8172443992365652	0.0	0.5313072091039786	-0.8234042469658938	0.0	0.5651799319247067	-0.7212402666649873	0.0	0.684236823408998	-0.744305993514352	0.0	0.7202595913793396	-0.6918838819102799	0.0	0.7147951310101638	-0.7076661076093836	0.0	0.6963316772636942	-0.75831139167538	0.0	0.5624430579494641	-0.8138215801273255	0.0	0.5859281840495265	-0.7099318053954191	0.0	0.6941751515902936	-0.7279378936912255	0.0	0.7286299956555443	-0.6783841353132347	0.0	0.7272927861236614	-0.6800510244269521	0.0	0.7121850721664772	-0.7417918915493935	0.0	0.4619301924775709	-0.7265610894011536	0.0	0.4707900465010241	-0.6528332191027908	0.0	0.4883912301751245	-0.7026668057407933	0.0	0.4286910659765619	-0.7461780747878812	0.0	0.42586739737983587	-0.8219141021459062	0.0	0.48747802523662126	-0.8409338122005248	0.0	0.4933244025169509	-0.7255478491788121	0.0	0.52834277298867	-0.7733346851603021	0.0	0.5481653457788342	-0.7981063044222024	0.0
57	1.9180952380952379	0.5488417463537135	-0.8094169973870211	0.0	0.5314095157385392	-0.8149020096579358	0.0	0.5672655280348914	-0.7133932020248784	0.0	0.6838961038851702	-0.7512810426179364	0.0	0.7272261114090233	-0.7048306343468076	0.0	0.7195881797537007	-0.7221580105859312	0.0	0.6935826186507406	-0.7672530705965895	0.0	0.5668346421569316	-0.8067665552099258	0.0	0.5975753971359921	-0.6995521525085723	0.0	0.6944681376260456	-0.7339116785861262	0.0	0.7342297249610137	-0.6905546154570552	0.0	0.7332524617657943	-0.691745831695034	0.0	0.7099084592644382	-0.7506235304948113	0.0	0.47409484290890097	-0.7101913433824893	0.0	0.48642580317227485	-0.6356284265824811	0.0	0.5017004458240416	-0.6863283066949301	0.0	0.43764877825882165	-0.7287811904747006	0.0	0.42607141591099945	-0.8043933120050941	0.0	0.4836183032024091	-0.8355234715211551	0.0	0.5066146431232884	-0.7101136466584029	0.0	0.5361355728219969	-0.7643231585818918	0.0	0.5565324809382838	-0.7952749373299213	0.0
58	1.9517460317460316	0.5510988166910533	-0.8045507898086953	0.0	0.5315939826310203	-0.809326534976396	0.0	0.56875104881293	-0.7079799917596326	0.0	0.6804828862444565	-0.7601654964623858	0.0	0.7296002167769206	-0.7200675987302705	0.0	0.7201147670010749	-0.7384227716488629	0.0	0.6880508290276197	-0.7775250955786398	0.0	0.5708093848107327	-0.8026449460146016	0.0	0.6087558643749605	-0.6925831907481115	0.0	0.6908658248850408	-0.7433377508492814	0.0	0.7339742235172041	-0.7067591329256735	0.0	0.73370396694274	-0.707530853172174	0.0	0.7029070828093689	-0.7621672788218876	0.0	0.4872326371276342	-0.6961880885733077	0.0	0.5043521224447081	-0.6216879803232532	0.0	0.5167339669149458	-0.6728701784212591	0.0	0.44796637265357003	-0.7140450411635314	0.0	0.4284292164169813	-0.788585880560541	0.0	0.48005530589789563	-0.830839451460085	0.0	0.5206683255640712	-0.6976559437879765	0.0	0.5451448563588384	-0.7561052554794453	0.0	0.5700324850440959	-0.7929287256337694	0.0
59	1.985396825396825	0.5528245293836532	-0.8025961624194592	0.0	0.5317852411731757	-0.8067848957765724	0.0	0.5704952696019967	-0.7056763912908244	0.0	0.6745531572505338	-0.7720516921272825	0.0	0.7279052315950765	-0.738764759890875	0.0	0.7167671323479544	-0.7574447196625076	0.0	0.6801741122395899	-0.7900938119869118	0.0	0.5739689779031855	-0.8015818688529467	0.0	0.6188934895768615	-0.6896173434731264	0.0	0.6840477687973014	-0.7564518422197195	0.0	0.7290829475240901	-0.7277223254654829	0.0	0.7295882151152262	-0.7280536710801381	0.0	0.6919283315291155	-0.7766175845047936	0.0	0.5012199272855897	-0.6853601611840633	0.0	0.5239417600262003	-0.6121431447498632	0.0	0.5331517124165355	-0.6634048740856603	0.0	0.45975676253496334	-0.7027247750825254	0.0	0.4334900443276451	-0.7757481407251899	0.0	0.477808638339862	-0.8276899002305816	0.0	0.5347192613009268	-0.6889563884364461	0.0	0.5538100715004989	-0.7499285798502686	0.0	0.5861153966998656	-0.7922580620446903	0.0
60	2.019047619047619	0.553850879165063	-0.803437495832793	0.0	0.5319801902200263	-0.8072708249803449	0.0	0.5731311933660765	-0.7068778979068229	0.0	0.6668527465610902	-0.7871038397232187	0.0	0.7229841189694407	-0.7611989954954114	0.0	0.710400571343921	-0.7793289936784736	0.0	0.6704639530617422	-0.8050850455077385	0.0	0.5761395164668068	-0.8034606412099825	0.0	0.627724768533981	-0.690781133830499	0.0	0.6751532751162729	-0.7726169005684161	0.0	0.7213565249652204	-0.7528770502492431	0.0	0.7222819082653987	-0.7527465109075364	0.0	0.6785788960978993	-0.7933247315244248	0.0	0.5158521322202893	-0.6782156619598502	0.0	0.5445423789331263	-0.607544823867592	0.0	0.5505146076295583	-0.6586124217610361	0.0	0.4730435576306354	-0.6951663648607311	0.0	0.4413107539417225	-0.766861649894017	0.0	0.477394674400686	-0.8269848626434387	0.0	0.5482194043639554	-0.6842542985737593	0.0	0.5610599657329143	-0.7468072259898884	0.0	0.6016829806488959	-0.7941770669623583	0.0
61	2.0526984126984122	0.5542187237277055	-0.8069747490767115	0.0	0.5322671198790732	-0.8106946493361369	0.0	0.5770322302529741	-0.7116256192004791	0.0	0.6584715145428356	-0.8044539020769129	0.0	0.7160356745576061	-0.7862942043472655	0.0	0.7022871303636175	-0.8028792721491443	0.0	0.6599626878299828	-0.8217680700176907	0.0	0.5772939555528246	-0.8079702051278934	0.0	0.6352864344322691	-0.6958511521189296	0.0	0.6658456751992899	-0.7905544947991767	0.0	0.7129880706872674	-0.7802605324183023	0.0	0.7136543518671589	-0.779715974604427	0.0	0.6652359745514846	-0.8110249122130158	0.0	0.5308349420325285	-0.6749672135326341	0.0	0.5655350360360464	-0.6078782609386908	0.0	0.568314141203868	-0.6586590697258767	0.0	0.48758922455046466	-0.6914330951453915	0.0	0.4514449217813981	-0.7624624917161097	0.0	0.47853278529523524	-0.8293780877995377	0.0	0.5609209710558523	-0.6833832118229214	0.0	0.566624736074913	-0.7472571589190925	0.0	0.6145740215401683	-0.7993971032818932	0.0
62	2.086349206349206	0.5541699050200081	-0.8128332388578906	0.0	0.5327778629497104	-0.816597675963144	0.0	0.582263354583159	-0.7194357675341644	0.0	0.6508215693187336	-0.8225023156527942	0.0	0.7086416983805496	-0.8117020976903404	0.0	0.6939598334608946	-0.8259643370543948	0.0	0.6502275292795034	-0.8388497559040735	0.0	0.5776016044627527	-0.8144831139496332	0.0	0.641844610846336	-0.7042424989074768	0.0	0.657915507892263	-0.8087223319942782	0.0	0.7061510406855487	-0.8070870082596954	0.0	0.7058778577842733	-0.8061983025155696	0.0	0.6542633578942643	-0.828364959895642	0.0	0.5458413607859098	-0.675531515535329	0.0	0.586257925231826	-0.612640566786734	0.0	0.5859827990852997	-0.6631508125275567	0.0	0.5027946927002344	-0.6913665813992065	0.0	0.46307003995832946	-0.7625156114193651	0.0	0.48041327716924587	-0.8348921806018144	0.0	0.57285666841101	-0.6859618079962017	0.0	0.571240730162438	-0.7512445556929159	0.0	0.624439082187297	-0.8079558093672969	0.0
63	2.1199999999999997	0.5541290890346762	-0.820189832431482	0.0	0.5337159691168082	-0.8240812499900375	0.0	0.5885391870494694	-0.7292096563061146	0.0	0.6451625935749215	-0.8394291047246757	0.0	0.7024100920623388	-0.834635588727389	0.0	0.6868922306300561	-0.8463770708461706	0.0	0.6427219738077352	-0.8548155089446023	0.0	0.5775229027339914	-0.8220640036217436	0.0	0.647759393567097	-0.7148821719933748	0.0	0.652570307525156	-0.8256142917858045	0.0	0.7022725027004738	-0.8306124617798141	0.0	0.7006944162995737	-0.8294247816150107	0.0	0.6470167872575051	-0.8442078982628135	0.0	0.5605192418109635	-0.6794984679563724	0.0	0.6060437428498484	-0.6209616863820054	0.0	0.602988494197434	-0.6712235770120747	0.0	0.5178022796439551	-0.6945443648501647	0.0	0.47522732749940044	-0.7663764565569446	0.0	0.4822993730959	-0.8428623062216449	0.0	0.5841265839944647	-0.6914283865556656	0.0	0.5763211145003176	-0.7582489602479098	0.0	0.6322115040857709	-0.8188590284487551	0.0
